0
SECTION
2
HEADER
9
$INSUNITS
70
4
9
$ACADVER
1
AC1014
9
$HANDSEED
5
FFFF
0
ENDSEC
0
SECTION
2
TABLES
0
TABLE
2
VPORT
5
8
100
AcDbSymbolTable
0
ENDTAB
0
TABLE
2
LTYPE
5
5
100
AcDbSymbolTable
0
LTYPE
5
14
100
AcDbSymbolTableRecord
100
AcDbLinetypeTableRecord
2
BYBLOCK
70
0
0
LTYPE
5
15
100
AcDbSymbolTableRecord
100
AcDbLinetypeTableRecord
2
BYLAYER
70
0
0
LTYPE
5
16
100
AcDbSymbolTableRecord
100
AcDbLinetypeTableRecord
2
DASHED
70
0
3
Dashed __ __ __ __ __ __ __ __ __ __ __ __ __ _
72
65
73
2
40
0.75
49
0.5
74
0
49
-0.25
74
0
0
ENDTAB
0
TABLE
2
LAYER
5
2
100
AcDbSymbolTable
70
2
0
LAYER
5
50
100
AcDbSymbolTableRecord
100
AcDbLayerTableRecord
2
0
70
0
62
7
6
CONTINUOUS
0
ENDTAB
0
TABLE
2
STYLE
5
3
100
AcDbSymbolTable
70
1
0
STYLE
5
11
100
AcDbSymbolTableRecord
100
AcDbTextStyleTableRecord
2
STANDARD
70
0
0
ENDTAB
0
TABLE
2
VIEW
5
6
100
AcDbSymbolTable
70
0
0
ENDTAB
0
TABLE
2
UCS
5
7
100
AcDbSymbolTable
70
0
0
ENDTAB
0
TABLE
2
APPID
5
9
100
AcDbSymbolTable
70
2
0
APPID
5
12
100
AcDbSymbolTableRecord
100
AcDbRegAppTableRecord
2
ACAD
70
0
0
ENDTAB
0
TABLE
2
DIMSTYLE
5
A
100
AcDbSymbolTable
70
1
0
ENDTAB
0
TABLE
2
BLOCK_RECORD
5
1
100
AcDbSymbolTable
70
1
0
BLOCK_RECORD
5
1F
100
AcDbSymbolTableRecord
100
AcDbBlockTableRecord
2
*MODEL_SPACE
0
BLOCK_RECORD
5
1B
100
AcDbSymbolTableRecord
100
AcDbBlockTableRecord
2
*PAPER_SPACE
0
ENDTAB
0
ENDSEC
0
SECTION
2
BLOCKS
0
BLOCK
5
20
100
AcDbEntity
100
AcDbBlockBegin
2
*MODEL_SPACE
0
ENDBLK
5
21
100
AcDbEntity
100
AcDbBlockEnd
0
BLOCK
5
1C
100
AcDbEntity
100
AcDbBlockBegin
2
*PAPER_SPACE
0
ENDBLK
5
1D
100
AcDbEntity
100
AcDbBlockEnd
0
ENDSEC
0
SECTION
2
ENTITIES
0
LWPOLYLINE
5
100
100
AcDbEntity
8
0
100
AcDbPolyline
90
4
70
1
43
0.0
10
-270
20
-105
10
-260.00000007450581
20
-105
10
-260.00000007450581
20
-110
10
-270
20
-110
0
LWPOLYLINE
5
101
100
AcDbEntity
8
0
100
AcDbPolyline
90
4
70
1
43
0.0
10
-270
20
-40
10
-270
20
-35
10
-260.00000007450581
20
-35
10
-260.00000007450581
20
-40
0
LWPOLYLINE
5
102
100
AcDbEntity
8
0
100
AcDbPolyline
90
4
70
1
43
0.0
10
-95
20
-145
10
-95
20
-140
10
-85.000000074505806
20
-140
10
-85.000000074505806
20
-145
0
LWPOLYLINE
5
103
100
AcDbEntity
8
0
100
AcDbPolyline
90
4
70
1
43
0.0
10
-50.000000074505806
20
-105
10
-50.000000074505806
20
-110
10
-60
20
-110
10
-60
20
-105
0
LWPOLYLINE
5
104
100
AcDbEntity
8
0
100
AcDbPolyline
90
4
70
1
43
0.0
10
-245
20
-95
10
-250.00000007450581
20
-95
10
-250.00000007450581
20
-85
10
-245
20
-85
0
LWPOLYLINE
5
105
100
AcDbEntity
8
0
100
AcDbPolyline
90
4
70
1
43
0.0
10
-110.00000007450581
20
-155
10
-105
20
-155
10
-105
20
-165
10
-110.00000007450581
20
-165
0
LWPOLYLINE
5
106
100
AcDbEntity
8
0
100
AcDbPolyline
90
4
70
1
43
0.0
10
-130
20
-105
10
-120.00000007450581
20
-105
10
-120.00000007450581
20
-110
10
-130
20
-110
0
LWPOLYLINE
5
107
100
AcDbEntity
8
0
100
AcDbPolyline
90
4
70
1
43
0.0
10
-70
20
-270
10
-75.000000074505806
20
-270
10
-75.000000074505806
20
-260
10
-70
20
-260
0
LWPOLYLINE
5
108
100
AcDbEntity
8
0
100
AcDbPolyline
90
4
70
1
43
0.0
10
-200
20
-40
10
-200
20
-35
10
-190.00000007450581
20
-35
10
-190.00000007450581
20
-40
0
LWPOLYLINE
5
109
100
AcDbEntity
8
0
100
AcDbPolyline
90
4
70
1
43
0.0
10
-130
20
-245
10
-120.00000007450581
20
-245
10
-120.00000007450581
20
-250
10
-130
20
-250
0
LWPOLYLINE
5
110
100
AcDbEntity
8
0
100
AcDbPolyline
90
4
70
1
43
0.0
10
-270
20
-245
10
-260.00000007450581
20
-245
10
-260.00000007450581
20
-250
10
-270
20
-250
0
LWPOLYLINE
5
111
100
AcDbEntity
8
0
100
AcDbPolyline
90
4
70
1
43
0.0
10
-70
20
-130
10
-75.000000074505806
20
-130
10
-75.000000074505806
20
-120
10
-70
20
-120
0
LWPOLYLINE
5
112
100
AcDbEntity
8
0
100
AcDbPolyline
90
4
70
1
43
0.0
10
-200
20
-105
10
-190.00000007450581
20
-105
10
-190.00000007450581
20
-110
10
-200
20
-110
0
LWPOLYLINE
5
113
100
AcDbEntity
8
0
100
AcDbPolyline
90
4
70
1
43
0.0
10
-245
20
-165
10
-250.00000007450581
20
-165
10
-250.00000007450581
20
-155
10
-245
20
-155
0
LWPOLYLINE
5
114
100
AcDbEntity
8
0
100
AcDbPolyline
90
4
70
1
43
0.0
10
-145.00000007450581
20
-60
10
-145.00000007450581
20
-50
10
-140
20
-50
10
-140
20
-60
0
LWPOLYLINE
5
115
100
AcDbEntity
8
0
100
AcDbPolyline
90
4
70
1
43
0.0
10
-200
20
-175
10
-190.00000007450581
20
-175
10
-190.00000007450581
20
-180
10
-200
20
-180
0
LWPOLYLINE
5
116
100
AcDbEntity
8
0
100
AcDbPolyline
90
4
70
1
43
0.0
10
-140
20
-190
10
-140
20
-200
10
-145.00000007450581
20
-200
10
-145.00000007450581
20
-190
0
LWPOLYLINE
5
117
100
AcDbEntity
8
0
100
AcDbPolyline
90
4
70
1
43
0.0
10
-130
20
-40
10
-130
20
-35
10
-120.00000007450581
20
-35
10
-120.00000007450581
20
-40
0
LWPOLYLINE
5
118
100
AcDbEntity
8
0
100
AcDbPolyline
90
4
70
1
43
0.0
10
-40.000000074505806
20
-235
10
-40.000000074505806
20
-225
10
-35
20
-225
10
-35
20
-235
0
LWPOLYLINE
5
119
100
AcDbEntity
8
0
100
AcDbPolyline
90
4
70
1
43
0.0
10
-155.00000007450581
20
-75
10
-165
20
-75
10
-165
20
-70
10
-155.00000007450581
20
-70
0
LWPOLYLINE
5
120
100
AcDbEntity
8
0
100
AcDbPolyline
90
4
70
1
43
0.0
10
-40.000000074505806
20
-165
10
-40.000000074505806
20
-155
10
-35
20
-155
10
-35
20
-165
0
LWPOLYLINE
5
121
100
AcDbEntity
8
0
100
AcDbPolyline
90
4
70
1
43
0.0
10
-215.00000007450581
20
-200
10
-215.00000007450581
20
-190
10
-210
20
-190
10
-210
20
-200
0
LWPOLYLINE
5
122
100
AcDbEntity
8
0
100
AcDbPolyline
90
4
70
1
43
0.0
10
-110.00000007450581
20
-25
10
-110.00000007450581
20
-15
10
-105
20
-15
10
-105
20
-25
0
LWPOLYLINE
5
123
100
AcDbEntity
8
0
100
AcDbPolyline
90
4
70
1
43
0.0
10
-155.00000007450581
20
-145
10
-165
20
-145
10
-165
20
-140
10
-155.00000007450581
20
-140
0
LWPOLYLINE
5
124
100
AcDbEntity
8
0
100
AcDbPolyline
90
72
70
1
43
0.0
10
-15.000000074505806
20
-285
10
0
20
-285
10
0
20
-270
10
-5.000000074505806
20
-270
10
-5.000000074505806
20
-260
10
0
20
-260
10
0
20
-200
10
-5.000000074505806
20
-200
10
-5.000000074505806
20
-190
10
0
20
-190
10
0
20
-130
10
-5.000000074505806
20
-130
10
-5.000000074505806
20
-120
10
0
20
-120
10
0
20
-60
10
-5.000000074505806
20
-60
10
-5.000000074505806
20
-50
10
0
20
-50
10
0
20
0
10
-15.000000074505806
20
0
10
-15.000000074505806
20
-5
10
-25
20
-5
10
-25
20
0
10
-85.000000074505806
20
0
10
-85.000000074505806
20
-5
10
-95
20
-5
10
-95
20
0
10
-155.00000007450581
20
0
10
-155.00000007450581
20
-5
10
-165
20
-5
10
-165
20
0
10
-225.00000007450581
20
0
10
-225.00000007450581
20
-5
10
-235
20
-5
10
-235
20
0
10
-285
20
0
10
-285
20
-15
10
-280
20
-15
10
-280
20
-25
10
-285
20
-25
10
-285
20
-85
10
-280
20
-85
10
-280
20
-95
10
-285
20
-95
10
-285
20
-120
10
-280
20
-120
10
-280
20
-130
10
-285
20
-130
10
-285
20
-190
10
-280
20
-190
10
-280
20
-200
10
-285
20
-200
10
-285
20
-260
10
-280
20
-260
10
-280
20
-270
10
-285
20
-270
10
-285
20
-285
10
-235
20
-285
10
-235
20
-280
10
-225.00000007450581
20
-280
10
-225.00000007450581
20
-285
10
-165
20
-285
10
-165
20
-280
10
-155.00000007450581
20
-280
10
-155.00000007450581
20
-285
10
-95
20
-285
10
-95
20
-280
10
-85.000000074505806
20
-280
10
-85.000000074505806
20
-285
10
-25
20
-285
10
-25
20
-280
10
-15.000000074505806
20
-280
0
LWPOLYLINE
5
125
100
AcDbEntity
8
0
100
AcDbPolyline
90
4
70
1
43
0.0
10
-25
20
-215
10
-25
20
-210
10
-15.000000074505806
20
-210
10
-15.000000074505806
20
-215
0
LWPOLYLINE
5
126
100
AcDbEntity
8
0
100
AcDbPolyline
90
4
70
1
43
0.0
10
-40.000000074505806
20
-25
10
-40.000000074505806
20
-15
10
-35
20
-15
10
-35
20
-25
0
LWPOLYLINE
5
127
100
AcDbEntity
8
0
100
AcDbPolyline
90
4
70
1
43
0.0
10
-25
20
-145
10
-25
20
-140
10
-15.000000074505806
20
-140
10
-15.000000074505806
20
-145
0
LWPOLYLINE
5
128
100
AcDbEntity
8
0
100
AcDbPolyline
90
4
70
1
43
0.0
10
-25
20
-75
10
-25
20
-70
10
-15.000000074505806
20
-70
10
-15.000000074505806
20
-75
0
LWPOLYLINE
5
129
100
AcDbEntity
8
0
100
AcDbPolyline
90
4
70
1
43
0.0
10
-140
20
-260
10
-140
20
-270
10
-145.00000007450581
20
-270
10
-145.00000007450581
20
-260
0
LWPOLYLINE
5
130
100
AcDbEntity
8
0
100
AcDbPolyline
90
4
70
1
43
0.0
10
-200
20
-245
10
-190.00000007450581
20
-245
10
-190.00000007450581
20
-250
10
-200
20
-250
0
LWPOLYLINE
5
131
100
AcDbEntity
8
0
100
AcDbPolyline
90
4
70
1
43
0.0
10
-50.000000074505806
20
-245
10
-50.000000074505806
20
-250
10
-60
20
-250
10
-60
20
-245
0
LWPOLYLINE
5
132
100
AcDbEntity
8
0
100
AcDbPolyline
90
4
70
1
43
0.0
10
-180.00000007450581
20
-225
10
-175
20
-225
10
-175
20
-235
10
-180.00000007450581
20
-235
0
LWPOLYLINE
5
133
100
AcDbEntity
8
0
100
AcDbPolyline
90
4
70
1
43
0.0
10
-270
20
-175
10
-260.00000007450581
20
-175
10
-260.00000007450581
20
-180
10
-270
20
-180
0
LWPOLYLINE
5
134
100
AcDbEntity
8
0
100
AcDbPolyline
90
4
70
1
43
0.0
10
-225.00000007450581
20
-140
10
-225.00000007450581
20
-145
10
-235
20
-145
10
-235
20
-140
0
LWPOLYLINE
5
135
100
AcDbEntity
8
0
100
AcDbPolyline
90
4
70
1
43
0.0
10
-155.00000007450581
20
-215
10
-165
20
-215
10
-165
20
-210
10
-155.00000007450581
20
-210
0
LWPOLYLINE
5
136
100
AcDbEntity
8
0
100
AcDbPolyline
90
4
70
1
43
0.0
10
-60
20
-40
10
-60
20
-35
10
-50.000000074505806
20
-35
10
-50.000000074505806
20
-40
0
LWPOLYLINE
5
137
100
AcDbEntity
8
0
100
AcDbPolyline
90
4
70
1
43
0.0
10
-180.00000007450581
20
-155
10
-175
20
-155
10
-175
20
-165
10
-180.00000007450581
20
-165
0
LWPOLYLINE
5
138
100
AcDbEntity
8
0
100
AcDbPolyline
90
4
70
1
43
0.0
10
-140
20
-120
10
-140
20
-130
10
-145.00000007450581
20
-130
10
-145.00000007450581
20
-120
0
LWPOLYLINE
5
139
100
AcDbEntity
8
0
100
AcDbPolyline
90
4
70
1
43
0.0
10
-180.00000007450581
20
-25
10
-180.00000007450581
20
-15
10
-175
20
-15
10
-175
20
-25
0
LWPOLYLINE
5
140
100
AcDbEntity
8
0
100
AcDbPolyline
90
4
70
1
43
0.0
10
-180.00000007450581
20
-85
10
-175
20
-85
10
-175
20
-95
10
-180.00000007450581
20
-95
0
LWPOLYLINE
5
141
100
AcDbEntity
8
0
100
AcDbPolyline
90
4
70
1
43
0.0
10
-250.00000007450581
20
-25
10
-250.00000007450581
20
-15
10
-245
20
-15
10
-245
20
-25
0
LWPOLYLINE
5
142
100
AcDbEntity
8
0
100
AcDbPolyline
90
4
70
1
43
0.0
10
-110.00000007450581
20
-225
10
-105
20
-225
10
-105
20
-235
10
-110.00000007450581
20
-235
0
LWPOLYLINE
5
143
100
AcDbEntity
8
0
100
AcDbPolyline
90
4
70
1
43
0.0
10
-130
20
-175
10
-120.00000007450581
20
-175
10
-120.00000007450581
20
-180
10
-130
20
-180
0
LWPOLYLINE
5
144
100
AcDbEntity
8
0
100
AcDbPolyline
90
4
70
1
43
0.0
10
-215.00000007450581
20
-130
10
-215.00000007450581
20
-120
10
-210
20
-120
10
-210
20
-130
0
LWPOLYLINE
5
145
100
AcDbEntity
8
0
100
AcDbPolyline
90
4
70
1
43
0.0
10
-110.00000007450581
20
-85
10
-105
20
-85
10
-105
20
-95
10
-110.00000007450581
20
-95
0
LWPOLYLINE
5
146
100
AcDbEntity
8
0
100
AcDbPolyline
90
4
70
1
43
0.0
10
-225.00000007450581
20
-70
10
-225.00000007450581
20
-75
10
-235
20
-75
10
-235
20
-70
0
LWPOLYLINE
5
147
100
AcDbEntity
8
0
100
AcDbPolyline
90
4
70
1
43
0.0
10
-215.00000007450581
20
-60
10
-215.00000007450581
20
-50
10
-210
20
-50
10
-210
20
-60
0
LWPOLYLINE
5
148
100
AcDbEntity
8
0
100
AcDbPolyline
90
4
70
1
43
0.0
10
-245
20
-235
10
-250.00000007450581
20
-235
10
-250.00000007450581
20
-225
10
-245
20
-225
0
LWPOLYLINE
5
149
100
AcDbEntity
8
0
100
AcDbPolyline
90
4
70
1
43
0.0
10
-95
20
-75
10
-95
20
-70
10
-85.000000074505806
20
-70
10
-85.000000074505806
20
-75
0
LWPOLYLINE
5
150
100
AcDbEntity
8
0
100
AcDbPolyline
90
4
70
1
43
0.0
10
-215.00000007450581
20
-270
10
-215.00000007450581
20
-260
10
-210
20
-260
10
-210
20
-270
0
LWPOLYLINE
5
151
100
AcDbEntity
8
0
100
AcDbPolyline
90
4
70
1
43
0.0
10
-70
20
-200
10
-75.000000074505806
20
-200
10
-75.000000074505806
20
-190
10
-70
20
-190
0
LWPOLYLINE
5
152
100
AcDbEntity
8
0
100
AcDbPolyline
90
4
70
1
43
0.0
10
-75.000000074505806
20
-60
10
-75.000000074505806
20
-50
10
-70
20
-50
10
-70
20
-60
0
LWPOLYLINE
5
153
100
AcDbEntity
8
0
100
AcDbPolyline
90
4
70
1
43
0.0
10
-225.00000007450581
20
-210
10
-225.00000007450581
20
-215
10
-235
20
-215
10
-235
20
-210
0
LWPOLYLINE
5
154
100
AcDbEntity
8
0
100
AcDbPolyline
90
4
70
1
43
0.0
10
-40.000000074505806
20
-95
10
-40.000000074505806
20
-85
10
-35
20
-85
10
-35
20
-95
0
LWPOLYLINE
5
155
100
AcDbEntity
8
0
100
AcDbPolyline
90
4
70
1
43
0.0
10
-95
20
-215
10
-95
20
-210
10
-85.000000074505806
20
-210
10
-85.000000074505806
20
-215
0
LWPOLYLINE
5
156
100
AcDbEntity
8
0
100
AcDbPolyline
90
4
70
1
43
0.0
10
-50.000000074505806
20
-175
10
-50.000000074505806
20
-180
10
-60
20
-180
10
-60
20
-175
0
ENDSEC
0
SECTION
2
OBJECTS
0
DICTIONARY
5
C
100
AcDbDictionary
3
ACAD_GROUP
350
D
3
ACAD_MLINESTYLE
350
17
0
DICTIONARY
5
D
100
AcDbDictionary
0
DICTIONARY
5
1A
330
C
100
AcDbDictionary
0
DICTIONARY
5
17
100
AcDbDictionary
0
ENDSEC
0
EOF
